<svg xmlns="http://www.w3.org/2000/svg" xmlns:xlink="http://www.w3.org/1999/xlink" width="500" zoomAndPan="magnify" viewBox="0 0 375 374.999991" height="500" preserveAspectRatio="xMidYMid meet" version="1.0"><defs><g/><clipPath id="2b309cd865"><path d="M 23.320312 141.09375 L 117.070312 141.09375 L 117.070312 246.09375 L 23.320312 246.09375 Z M 23.320312 141.09375 " clip-rule="nonzero"/></clipPath></defs><g fill="#8c52ff" fill-opacity="1"><g transform="translate(128.909542, 188.411296)"><g><path d="M 14.851562 0 L 30.214844 0 L 45.109375 -30.726562 L 31.066406 -30.726562 L 22.574219 -11.136719 L 22.488281 -11.136719 L 13.996094 -30.726562 L 0 -30.726562 Z M 14.851562 0 "/></g></g></g><g fill="#8c52ff" fill-opacity="1"><g transform="translate(172.729405, 188.411296)"><g><path d="M 24.324219 1.066406 C 38.238281 1.066406 47.371094 -5.417969 47.371094 -15.363281 C 47.371094 -25.304688 38.238281 -31.792969 24.324219 -31.792969 C 10.414062 -31.792969 1.28125 -25.304688 1.28125 -15.363281 C 1.28125 -5.417969 10.414062 1.066406 24.324219 1.066406 Z M 24.324219 -8.320312 C 18.648438 -8.320312 14.9375 -11.09375 14.9375 -15.363281 C 14.9375 -19.628906 18.648438 -22.40625 24.324219 -22.40625 C 30 -22.40625 33.714844 -19.628906 33.714844 -15.363281 C 33.714844 -11.09375 30 -8.320312 24.324219 -8.320312 Z M 24.324219 -8.320312 "/></g></g></g><g fill="#8c52ff" fill-opacity="1"><g transform="translate(220.09071, 188.411296)"><g><path d="M 11.523438 0 L 25.179688 0 L 25.179688 -21.335938 L 36.273438 -21.335938 L 36.273438 -30.726562 L 0.425781 -30.726562 L 0.425781 -21.335938 L 11.523438 -21.335938 Z M 11.523438 0 "/></g></g></g><g fill="#8c52ff" fill-opacity="1"><g transform="translate(255.50497, 188.411296)"><g><path d="M 24.324219 1.066406 C 38.238281 1.066406 47.371094 -5.417969 47.371094 -15.363281 C 47.371094 -25.304688 38.238281 -31.792969 24.324219 -31.792969 C 10.414062 -31.792969 1.28125 -25.304688 1.28125 -15.363281 C 1.28125 -5.417969 10.414062 1.066406 24.324219 1.066406 Z M 24.324219 -8.320312 C 18.648438 -8.320312 14.9375 -11.09375 14.9375 -15.363281 C 14.9375 -19.628906 18.648438 -22.40625 24.324219 -22.40625 C 30 -22.40625 33.714844 -19.628906 33.714844 -15.363281 C 33.714844 -11.09375 30 -8.320312 24.324219 -8.320312 Z M 24.324219 -8.320312 "/></g></g></g><g fill="#8c52ff" fill-opacity="1"><g transform="translate(302.866273, 188.411296)"><g><path d="M 1.707031 0 L 35.847656 0 L 35.847656 -8.535156 L 17.027344 -8.535156 L 35.421875 -20.996094 L 35.632812 -30.726562 L 2.347656 -30.726562 L 2.132812 -22.191406 L 20.058594 -22.191406 L 1.707031 -9.515625 Z M 1.707031 0 "/></g></g></g><g fill="#000000" fill-opacity="1"><g transform="translate(128.909542, 225.911294)"><g><path d="M 20.398438 0.851562 C 32.605469 0.851562 40.328125 -3.671875 40.285156 -10.242188 C 40.285156 -16.089844 35.589844 -18.992188 24.667969 -19.972656 L 19.628906 -20.398438 C 16.003906 -20.699219 14.425781 -21.167969 14.46875 -21.890625 C 14.507812 -23.042969 17.410156 -23.640625 21.464844 -23.683594 C 25.859375 -23.726562 31.023438 -22.703125 34.867188 -20.867188 L 38.023438 -28.675781 C 33.714844 -30.554688 27.566406 -31.621094 21.335938 -31.621094 C 9.304688 -31.621094 1.28125 -27.824219 1.238281 -20.910156 C 1.238281 -15.191406 5.761719 -12.332031 16.300781 -11.351562 L 21.210938 -10.882812 C 25.304688 -10.539062 27.054688 -9.984375 27.054688 -9.089844 C 27.054688 -7.980469 24.792969 -7.46875 21.125 -7.46875 C 15.703125 -7.46875 9.089844 -9.046875 4.824219 -11.222656 L 0.851562 -3.074219 C 5.503906 -0.726562 13.570312 0.851562 20.398438 0.851562 Z M 20.398438 0.851562 "/></g></g></g><g fill="#000000" fill-opacity="1"><g transform="translate(168.76128, 225.911294)"><g><path d="M 11.523438 0 L 25.179688 0 L 25.179688 -21.335938 L 36.273438 -21.335938 L 36.273438 -30.726562 L 0.425781 -30.726562 L 0.425781 -21.335938 L 11.523438 -21.335938 Z M 11.523438 0 "/></g></g></g><g fill="#000000" fill-opacity="1"><g transform="translate(204.175538, 225.911294)"><g><path d="M 22.40625 0.640625 C 35.71875 0.640625 43.101562 -4.609375 43.101562 -14.082031 L 43.101562 -30.726562 L 29.445312 -30.726562 L 29.445312 -14.9375 C 29.445312 -10.925781 26.929688 -8.960938 22.40625 -8.960938 C 17.878906 -8.960938 15.363281 -10.925781 15.363281 -14.9375 L 15.363281 -30.726562 L 1.707031 -30.726562 L 1.707031 -14.082031 C 1.707031 -4.609375 9.089844 0.640625 22.40625 0.640625 Z M 22.40625 0.640625 "/></g></g></g><g fill="#000000" fill-opacity="1"><g transform="translate(247.696724, 225.911294)"><g><path d="M 2.132812 0 L 25.136719 0 C 37.210938 0 43.957031 -5.503906 43.957031 -15.363281 C 43.957031 -25.222656 37.210938 -30.726562 25.136719 -30.726562 L 2.132812 -30.726562 Z M 15.363281 -8.960938 L 15.363281 -21.765625 L 23 -21.765625 C 27.953125 -21.765625 30.726562 -19.460938 30.726562 -15.363281 C 30.726562 -11.265625 27.953125 -8.960938 23 -8.960938 Z M 15.363281 -8.960938 "/></g></g></g><g fill="#000000" fill-opacity="1"><g transform="translate(291.644586, 225.911294)"><g><path d="M 2.132812 0 L 15.703125 0 L 15.703125 -30.726562 L 2.132812 -30.726562 Z M 2.132812 0 "/></g></g></g><g fill="#000000" fill-opacity="1"><g transform="translate(308.199562, 225.911294)"><g><path d="M 24.324219 1.066406 C 38.238281 1.066406 47.371094 -5.417969 47.371094 -15.363281 C 47.371094 -25.304688 38.238281 -31.792969 24.324219 -31.792969 C 10.414062 -31.792969 1.28125 -25.304688 1.28125 -15.363281 C 1.28125 -5.417969 10.414062 1.066406 24.324219 1.066406 Z M 24.324219 -8.320312 C 18.648438 -8.320312 14.9375 -11.09375 14.9375 -15.363281 C 14.9375 -19.628906 18.648438 -22.40625 24.324219 -22.40625 C 30 -22.40625 33.714844 -19.628906 33.714844 -15.363281 C 33.714844 -11.09375 30 -8.320312 24.324219 -8.320312 Z M 24.324219 -8.320312 "/></g></g></g><g clip-path="url(#2b309cd865)"><path fill="#8c52ff" d="M 103.289062 199.375 L 108.222656 196.519531 C 108.742188 196.214844 109.1875 195.8125 109.519531 195.269531 L 109.496094 195.292969 C 109.800781 194.773438 109.921875 194.183594 109.921875 193.570312 C 109.921875 192.980469 109.800781 192.390625 109.496094 191.871094 C 109.1875 191.351562 108.742188 190.929688 108.222656 190.644531 L 71.894531 169.667969 C 71.847656 169.644531 71.800781 169.597656 71.753906 169.574219 L 35.570312 148.714844 C 35.050781 148.410156 34.460938 148.242188 33.871094 148.242188 C 33.257812 148.242188 32.691406 148.410156 32.171875 148.714844 C 31.652344 149.023438 31.203125 149.421875 30.917969 149.941406 C 30.894531 149.964844 30.894531 150.011719 30.871094 150.035156 C 30.613281 150.53125 30.496094 151.097656 30.496094 151.664062 L 30.496094 185.785156 L 53.34375 172.59375 C 54.453125 171.957031 55.84375 171.957031 56.929688 172.617188 Z M 60.257812 184.460938 C 58.371094 182.574219 56.175781 180.402344 55.398438 179.648438 L 28.914062 194.890625 C 28.324219 195.292969 27.617188 195.503906 26.90625 195.503906 C 24.925781 195.503906 23.34375 193.902344 23.34375 191.941406 L 23.34375 151.664062 C 23.34375 149.871094 23.769531 148.148438 24.640625 146.59375 C 24.664062 146.519531 24.710938 146.449219 24.757812 146.402344 C 25.65625 144.75 26.976562 143.453125 28.605469 142.535156 C 30.210938 141.613281 32.003906 141.09375 33.847656 141.09375 C 35.710938 141.09375 37.503906 141.613281 39.109375 142.535156 L 75.292969 163.414062 C 75.339844 163.4375 75.386719 163.460938 75.460938 163.511719 L 111.785156 184.484375 C 113.390625 185.40625 114.734375 186.703125 115.65625 188.332031 C 116.578125 189.9375 117.046875 191.753906 117.046875 193.617188 C 117.046875 195.480469 116.578125 197.296875 115.65625 198.902344 C 114.734375 200.507812 113.390625 201.804688 111.785156 202.726562 L 75.175781 223.867188 L 39.109375 244.65625 C 37.503906 245.574219 35.710938 246.09375 33.847656 246.09375 C 31.980469 246.09375 30.1875 245.574219 28.582031 244.65625 C 27.992188 244.300781 27.425781 243.921875 26.90625 243.476562 L 35.121094 238.730469 C 48.835938 230.828125 64.128906 220.117188 52.941406 210.441406 C 51.054688 208.789062 48.597656 206.617188 48.503906 204.023438 C 48.386719 200.765625 51.40625 198.808594 53.671875 196.875 C 59.738281 191.753906 64.296875 188.472656 60.257812 184.460938 Z M 60.257812 184.460938 " fill-opacity="1" fill-rule="evenodd"/></g></svg>